<!-- Generated by IcoMoon.io -->
<svg version="1.1" xmlns="http://www.w3.org/2000/svg" width="32" height="32" viewBox="0 0 32 32">
<path fill="none" stroke-linejoin="round" stroke-linecap="round" stroke-miterlimit="4" stroke-width="2" stroke="#000" d="M26.209 9h-20.418c-0.246-0-0.483 0.090-0.667 0.253s-0.303 0.387-0.333 0.631l-1.781 15c-0.016 0.141-0.003 0.283 0.040 0.419s0.114 0.259 0.208 0.365c0.095 0.105 0.21 0.19 0.34 0.247s0.27 0.087 0.412 0.086h23.98c0.142 0.001 0.282-0.028 0.412-0.086s0.245-0.142 0.34-0.247c0.095-0.106 0.166-0.23 0.209-0.365s0.056-0.278 0.040-0.419l-1.781-15c-0.030-0.244-0.149-0.468-0.333-0.631s-0.422-0.253-0.667-0.253z"></path>
<path fill="none" stroke-linejoin="round" stroke-linecap="round" stroke-miterlimit="4" stroke-width="2" stroke="#000" d="M11 9v-1c0-1.326 0.527-2.598 1.464-3.536s2.209-1.464 3.536-1.464c1.326 0 2.598 0.527 3.536 1.464s1.464 2.209 1.464 3.536v1"></path>
</svg>
