<!-- Generated by IcoMoon.io -->
<svg version="1.1" xmlns="http://www.w3.org/2000/svg" width="32" height="32" viewBox="0 0 32 32">
<path fill="none" stroke-linejoin="miter" stroke-linecap="butt" stroke-miterlimit="4" stroke-width="0.75" stroke="#000" d="M15.688 11.459c0.193-0.112 0.432-0.112 0.625 0l13 7.506c0.417 0.241 0.417 0.842 0 1.083l-13 7.505c-0.169 0.098-0.373 0.11-0.551 0.037l-0.074-0.037-13-7.505c-0.417-0.241-0.417-0.842 0-1.083l13-7.506z"></path>
<path stroke-linejoin="miter" stroke-linecap="round" stroke-miterlimit="4" stroke-width="0.75" stroke="#000" fill="#000" d="M15.664 8.301c0.191-0.108 0.425-0.108 0.616 0l12.972 7.351c0.422 0.239 0.422 0.849 0 1.088l-12.972 7.351c-0.191 0.108-0.425 0.108-0.616 0l-12.972-7.351c-0.422-0.239-0.422-0.848 0-1.088l12.972-7.351z"></path>
<path stroke-linejoin="miter" stroke-linecap="butt" stroke-miterlimit="4" stroke-width="0.75" stroke="#000" fill="#000" d="M15.688 4.459c0.193-0.112 0.432-0.112 0.625 0l13 7.506c0.417 0.241 0.417 0.842 0 1.083l-13 7.505c-0.169 0.098-0.373 0.11-0.551 0.037l-0.074-0.037-13-7.505c-0.417-0.241-0.417-0.842 0-1.083l13-7.506z"></path>
</svg>
