<!-- Generated by IcoMoon.io -->
<svg version="1.1" xmlns="http://www.w3.org/2000/svg" width="32" height="32" viewBox="0 0 32 32">
<path fill="none" stroke-linejoin="round" stroke-linecap="round" stroke-miterlimit="4" stroke-width="0.75" stroke="#000" d="M27.628 17.579l-2.996 0.999M27.79 22.316l-3.115-0.519M29.435 20.211h-4.737M4.334 17.579l2.996 0.999M4.172 22.316l3.115-0.519M2.526 20.211h4.737M8.237 6h3.882c0 0 0 3.882 3.882 3.882s3.882-3.882 3.882-3.882h3.882l5.749 2.299c0.191 0.076 0.344 0.226 0.425 0.415s0.084 0.403 0.007 0.594l-2.104 5.261c-0.058 0.144-0.157 0.267-0.286 0.354s-0.28 0.133-0.435 0.133h-3.356c0 0-0.393 1.362-0.508 2.259-0.158 1.23-0.268 1.872-0.268 3.175 0 2.132 0.776 5.434 0.776 5.434 0 0.206-0.082 0.403-0.227 0.549s-0.343 0.227-0.549 0.227h-13.974c-0.206 0-0.403-0.082-0.549-0.227s-0.227-0.343-0.227-0.549c0 0 0.545-3.304 0.61-5.434 0.032-1.034 0.091-2.145 0-3.175-0.097-1.102-0.61-2.259-0.61-2.259h-3.356c-0.155 0-0.307-0.046-0.435-0.133s-0.228-0.21-0.286-0.354l-2.104-5.261c-0.077-0.191-0.074-0.405 0.007-0.594s0.234-0.339 0.425-0.415l5.749-2.299z"></path>
</svg>
