<!-- Generated by IcoMoon.io -->
<svg version="1.1" xmlns="http://www.w3.org/2000/svg" width="32" height="32" viewBox="0 0 32 32">
<path fill="none" stroke-linejoin="round" stroke-linecap="round" stroke-miterlimit="4" stroke-width="0.75" stroke="#000" d="M8.737 6h3.882c0 0 0 3.882 3.882 3.882s3.882-3.882 3.882-3.882h3.882M24.263 15.057v10.869c0 0.206-0.082 0.403-0.227 0.549s-0.343 0.227-0.549 0.227h-13.974c-0.206 0-0.403-0.082-0.549-0.227s-0.227-0.343-0.227-0.549v-10.869M24.263 6l5.749 2.299c0.191 0.076 0.344 0.226 0.425 0.415s0.084 0.403 0.007 0.594l-2.104 5.261c-0.058 0.144-0.157 0.267-0.286 0.354s-0.28 0.133-0.435 0.133h-3.356M8.737 6l-5.749 2.299c-0.191 0.076-0.344 0.226-0.425 0.415s-0.084 0.403-0.007 0.594l2.104 5.261c0.058 0.144 0.157 0.267 0.286 0.354s0.28 0.133 0.435 0.133h3.356"></path>
</svg>
