<svg width="64" height="64" viewBox="0 0 64 64" fill="none" xmlns="http://www.w3.org/2000/svg">
<g clip-path="url(#clip0_4033_312)">
<path d="M52.7169 43.8915C52.6666 43.8512 38.9505 32.1981 32.656 43.8915C38.9505 55.5849 52.6716 43.9318 52.7169 43.8915Z" fill="#E3E3E3" stroke="#212322" stroke-width="1.5" stroke-linecap="round" stroke-linejoin="round"/>
<path d="M12.4744 43.8915C12.5247 43.8512 26.2407 32.1981 32.5352 43.8915C26.2407 55.5849 12.5196 43.9318 12.4744 43.8915Z" fill="#E3E3E3" stroke="#212322" stroke-width="1.5" stroke-linecap="round" stroke-linejoin="round"/>
<path d="M32.4749 43.5292V51.8716" stroke="#212322" stroke-width="1.5" stroke-linecap="round" stroke-linejoin="round"/>
<path d="M44.928 17.4355C44.3745 17.4355 43.8311 17.4757 43.2978 17.5462C41.0889 13.8933 37.0788 11.4529 32.5 11.4529C27.9213 11.4529 23.9111 13.8933 21.7023 17.5462C21.1689 17.4757 20.6255 17.4355 20.0721 17.4355C13.1033 17.4355 7.45288 23.0809 7.45288 30.0496C7.45288 37.0184 13.1033 42.6638 20.067 42.6638C22.6231 42.6638 30.4069 42.5531 32.5 42.5531C34.5932 42.5531 42.377 42.6638 44.933 42.6638C51.9018 42.6638 57.5472 37.0133 57.5472 30.0496C57.5472 23.0859 51.8967 17.4355 44.933 17.4355H44.928Z" stroke="#212322" stroke-width="1.5" stroke-linecap="round" stroke-linejoin="round"/>
<path d="M43.8361 36.0221V36.007L43.816 36.0221C43.3783 35.9969 38.9807 35.8158 35.7957 37.8636C35.5693 34.0396 32.7415 30.5628 32.4547 30.2257V30.2006L32.4447 30.2157L32.4346 30.2006V30.2257C32.1528 30.5628 29.3553 33.9994 29.0987 37.7932C25.9187 35.8208 21.6167 35.9969 21.184 36.0221L21.1639 36.007V36.0221H21.1488L21.1689 36.0372C21.3299 36.7164 23.9413 47.167 32.3742 44.5707L32.4799 44.6512C32.4799 44.6512 32.4799 44.6714 32.4799 44.6864L32.5 44.6714L32.5202 44.6864C32.5202 44.6864 32.5202 44.6663 32.5202 44.6512L32.6258 44.5707C41.0537 47.167 43.6701 36.7164 43.8311 36.0372L43.8512 36.0221H43.8361Z" fill="#E3E3E3" stroke="#212322" stroke-width="1.5" stroke-linecap="round" stroke-linejoin="round"/>
</g>
<defs>
<clipPath id="clip0_4033_312">
<rect width="51" height="41.3243" fill="white" transform="translate(7 11.0001)"/>
</clipPath>
</defs>
</svg>
