<svg width="64" height="64" viewBox="0 0 64 64" fill="none" xmlns="http://www.w3.org/2000/svg">
<path d="M31.375 22.9171C31.7616 22.694 32.2384 22.694 32.625 22.9171L58.625 37.9288C59.4583 38.41 59.4583 39.6128 58.625 40.0939L32.625 55.1046C32.2864 55.3001 31.8791 55.3246 31.5234 55.1779L31.375 55.1046L5.375 40.0939C4.54169 39.6128 4.54172 38.41 5.375 37.9288L31.375 22.9171Z" stroke="#212322" stroke-width="1.5"/>
<path d="M31.3271 16.6027C31.7093 16.3862 32.1774 16.3862 32.5596 16.6027L58.5029 31.3038C59.3479 31.7827 59.3479 33.0008 58.5029 33.4796L32.5596 48.1808C32.1774 48.3973 31.7094 48.3973 31.3271 48.1808L5.38379 33.4796C4.53881 33.0008 4.53881 31.7827 5.38379 31.3038L31.3271 16.6027Z" fill="#E3E3E3" stroke="#212322" stroke-width="1.5" stroke-linecap="round"/>
<path d="M31.375 8.91711C31.7616 8.69398 32.2384 8.69398 32.625 8.91711L58.625 23.9288C59.4583 24.41 59.4583 25.6128 58.625 26.0939L32.625 41.1046C32.2864 41.3001 31.8791 41.3246 31.5234 41.1779L31.375 41.1046L5.375 26.0939C4.54169 25.6128 4.54172 24.41 5.375 23.9288L31.375 8.91711Z" fill="#E3E3E3" stroke="#212322" stroke-width="1.5"/>
</svg>
