<svg width="64" height="64" viewBox="0 0 64 64" fill="none" xmlns="http://www.w3.org/2000/svg">
<path d="M16.4101 11.0001H24.1342C24.1342 11.0001 24.1342 18.7243 31.8583 18.7243C39.5825 18.7243 39.5825 11.0001 39.5825 11.0001H47.3066M47.3066 29.0231V50.6507C47.3066 51.0604 47.1438 51.4534 46.8541 51.7431C46.5644 52.0328 46.1715 52.1955 45.7618 52.1955H17.9549C17.5452 52.1955 17.1522 52.0328 16.8625 51.7431C16.5728 51.4534 16.4101 51.0604 16.4101 50.6507V29.0231M47.3066 11.0001L58.7461 15.5754C59.1264 15.7277 59.4307 16.0248 59.5919 16.4014C59.7532 16.7781 59.7583 17.2033 59.606 17.5837L55.4195 28.0524C55.3048 28.339 55.1069 28.5846 54.8513 28.7576C54.5957 28.9306 54.2941 29.0231 53.9854 29.0231H47.3066M16.4101 11.0001L4.97061 15.5754C4.59026 15.7277 4.28599 16.0248 4.12472 16.4014C3.96345 16.7781 3.95839 17.2033 4.11065 17.5837L8.29713 28.0524C8.41185 28.339 8.60978 28.5846 8.86539 28.7576C9.12101 28.9306 9.42259 29.0231 9.73125 29.0231H16.4101" stroke="#212322" stroke-width="1.5" stroke-linecap="round" stroke-linejoin="round"/>
<line x1="31.7844" y1="18.7242" x2="31.7844" y2="52.5173" stroke="#212322" stroke-width="1.5"/>
<line x1="31.6323" y1="51.8637" x2="47.0806" y2="43.174" stroke="#212322" stroke-width="1.5"/>
<line x1="31.6323" y1="45.1051" x2="47.0806" y2="36.4155" stroke="#212322" stroke-width="1.5"/>
<line x1="31.6323" y1="38.3464" x2="47.0806" y2="29.6568" stroke="#212322" stroke-width="1.5"/>
<line x1="31.6554" y1="31.5753" x2="59.6554" y2="17.0925" stroke="#212322" stroke-width="1.5"/>
<line x1="31.6554" y1="24.8167" x2="53.9528" y2="13.2836" stroke="#212322" stroke-width="1.5"/>
</svg>
