<svg width="64" height="64" viewBox="0 0 64 64" fill="none" xmlns="http://www.w3.org/2000/svg">
<path d="M55.2564 35.1587L49.2645 37.156M55.5802 44.6327L49.3502 43.5942M58.8708 40.422H49.3968M8.66714 35.1587L14.659 37.156M8.34332 44.6327L14.5734 43.5942M5.05271 40.422H14.5267M16.4732 12.0001H24.2366C24.2366 12.0001 24.2366 19.7635 32 19.7635C39.7634 19.7635 39.7634 12.0001 39.7634 12.0001H47.5268L59.0245 16.5987C59.4067 16.7517 59.7126 17.0504 59.8746 17.4289C60.0367 17.8074 60.0418 18.2349 59.8888 18.6171L55.681 29.1392C55.5657 29.4272 55.3668 29.674 55.1099 29.8479C54.853 30.0218 54.5498 30.1148 54.2396 30.1148H47.5268C47.5268 30.1148 46.7414 32.8389 46.5105 34.6325C46.1937 37.0924 45.9742 38.3768 45.9742 40.9835C45.9742 45.2466 47.5268 51.8523 47.5268 51.8523C47.5268 52.2641 47.3633 52.6591 47.0721 52.9502C46.7809 53.2414 46.386 53.405 45.9742 53.405H18.0258C17.6141 53.405 17.2191 53.2414 16.9279 52.9502C16.6368 52.6591 16.4732 52.2641 16.4732 51.8523C16.4732 51.8523 17.563 45.2448 17.6937 40.9835C17.7571 38.9154 17.8751 36.6937 17.6937 34.6325C17.4998 32.4292 16.4732 30.1148 16.4732 30.1148H9.76039C9.45016 30.1148 9.14705 30.0218 8.89014 29.8479C8.63322 29.674 8.43429 29.4272 8.31899 29.1392L4.11121 18.6171C3.95818 18.2349 3.96326 17.8074 4.12535 17.4289C4.28744 17.0504 4.59326 16.7517 4.97554 16.5987L16.4732 12.0001Z" stroke="#212322" stroke-width="1.5" stroke-linecap="round" stroke-linejoin="round"/>
</svg>
