<svg width="64" height="64" viewBox="0 0 64 64" fill="none" xmlns="http://www.w3.org/2000/svg">
<path d="M17.4732 12.0001H25.2366C25.2366 12.0001 25.2366 19.7635 33 19.7635C40.7634 19.7635 40.7634 12.0001 40.7634 12.0001H48.5268M48.5268 30.1148V51.8523C48.5268 52.2641 48.3633 52.6591 48.0721 52.9502C47.7809 53.2414 47.386 53.405 46.9742 53.405H19.0258C18.6141 53.405 18.2191 53.2414 17.9279 52.9502C17.6368 52.6591 17.4732 52.2641 17.4732 51.8523V30.1148M48.5268 12.0001L60.0245 16.5987C60.4067 16.7517 60.7126 17.0504 60.8747 17.4289C61.0367 17.8074 61.0418 18.2349 60.8888 18.6171L56.681 29.1392C56.5657 29.4272 56.3668 29.674 56.1099 29.8479C55.853 30.0218 55.5498 30.1148 55.2396 30.1148H48.5268M17.4732 12.0001L5.97554 16.5987C5.59326 16.7517 5.28744 17.0504 5.12535 17.4289C4.96326 17.8074 4.95818 18.2349 5.11121 18.6171L9.31899 29.1392C9.43429 29.4272 9.63322 29.674 9.89014 29.8479C10.1471 30.0218 10.4502 30.1148 10.7604 30.1148H17.4732" stroke="#212322" stroke-width="1.5" stroke-linecap="round" stroke-linejoin="round" stroke-dasharray="3 3"/>
</svg>
