<!-- Generated by IcoMoon.io -->
<svg version="1.1" xmlns="http://www.w3.org/2000/svg" width="32" height="32" viewBox="0 0 32 32">
<path fill="#e3e3e3" stroke-linejoin="round" stroke-linecap="round" stroke-miterlimit="4" stroke-width="0.75" stroke="#000" d="M26.358 21.946c-0.025-0.020-6.883-5.847-10.030 0 3.147 5.847 10.008 0.020 10.030 0z"></path>
<path fill="#e3e3e3" stroke-linejoin="round" stroke-linecap="round" stroke-miterlimit="4" stroke-width="0.75" stroke="#000" d="M6.237 21.946c0.025-0.020 6.883-5.847 10.030 0-3.147 5.847-10.008 0.020-10.030 0z"></path>
<path fill="none" stroke-linejoin="round" stroke-linecap="round" stroke-miterlimit="4" stroke-width="0.75" stroke="#000" d="M16.237 21.765v4.171"></path>
<path fill="none" stroke-linejoin="round" stroke-linecap="round" stroke-miterlimit="4" stroke-width="0.75" stroke="#000" d="M22.464 8.718c-0.277 0-0.548 0.020-0.815 0.055-1.104-1.826-3.11-3.047-5.399-3.047s-4.294 1.22-5.399 3.047c-0.267-0.035-0.538-0.055-0.815-0.055-3.484 0-6.31 2.823-6.31 6.307s2.825 6.307 6.307 6.307c1.278 0 5.17-0.055 6.216-0.055s4.939 0.055 6.216 0.055c3.484 0 6.307-2.825 6.307-6.307s-2.825-6.307-6.307-6.307h-0.003z"></path>
<path fill="#e3e3e3" stroke-linejoin="round" stroke-linecap="round" stroke-miterlimit="4" stroke-width="0.75" stroke="#000" d="M21.918 18.011v-0.008l-0.010 0.008c-0.219-0.013-2.418-0.103-4.010 0.921-0.113-1.912-1.527-3.65-1.671-3.819v-0.013l-0.005 0.008-0.005-0.008v0.013c-0.141 0.169-1.54 1.887-1.668 3.784-1.59-0.986-3.741-0.898-3.957-0.886l-0.010-0.008v0.008h-0.008l0.010 0.008c0.081 0.34 1.386 5.565 5.603 4.267l0.053 0.040c0 0 0 0.010 0 0.018l0.010-0.008 0.010 0.008c0 0 0-0.010 0-0.018l0.053-0.040c4.214 1.298 5.522-3.927 5.603-4.267l0.010-0.008h-0.008z"></path>
</svg>
