<!-- Generated by IcoMoon.io -->
<svg version="1.1" xmlns="http://www.w3.org/2000/svg" width="32" height="32" viewBox="0 0 32 32">
<path fill="none" stroke-linejoin="round" stroke-linecap="round" stroke-miterlimit="4" stroke-width="0.75" stroke="#000" d="M8.205 5.5h3.862c0 0 0 3.862 3.862 3.862s3.862-3.862 3.862-3.862h3.862M23.653 14.512v10.814c0 0.205-0.081 0.401-0.226 0.546s-0.341 0.226-0.546 0.226h-13.903c-0.205 0-0.401-0.081-0.546-0.226s-0.226-0.341-0.226-0.546v-10.814M23.653 5.5l5.72 2.288c0.19 0.076 0.342 0.225 0.423 0.413s0.083 0.401 0.007 0.591l-2.093 5.234c-0.057 0.143-0.156 0.266-0.284 0.353s-0.279 0.133-0.433 0.133h-3.339M8.205 5.5l-5.72 2.288c-0.19 0.076-0.342 0.225-0.423 0.413s-0.083 0.401-0.007 0.591l2.093 5.234c0.057 0.143 0.156 0.266 0.284 0.353s0.279 0.133 0.433 0.133h3.339"></path>
<path fill="none" stroke-linejoin="miter" stroke-linecap="butt" stroke-miterlimit="4" stroke-width="0.75" stroke="#000" d="M15.892 9.362v16.897"></path>
<path fill="none" stroke-linejoin="miter" stroke-linecap="butt" stroke-miterlimit="4" stroke-width="0.75" stroke="#000" d="M15.816 25.932l7.724-4.345"></path>
<path fill="none" stroke-linejoin="miter" stroke-linecap="butt" stroke-miterlimit="4" stroke-width="0.75" stroke="#000" d="M15.816 22.553l7.724-4.345"></path>
<path fill="none" stroke-linejoin="miter" stroke-linecap="butt" stroke-miterlimit="4" stroke-width="0.75" stroke="#000" d="M15.816 19.173l7.724-4.345"></path>
<path fill="none" stroke-linejoin="miter" stroke-linecap="butt" stroke-miterlimit="4" stroke-width="0.75" stroke="#000" d="M15.828 15.788l14-7.241"></path>
<path fill="none" stroke-linejoin="miter" stroke-linecap="butt" stroke-miterlimit="4" stroke-width="0.75" stroke="#000" d="M15.828 12.408l11.149-5.767"></path>
</svg>
